<?xml version="1.0" encoding="utf-8"?>
<!-- Generator: Adobe Illustrator 16.0.0, SVG Export Plug-In . SVG Version: 6.00 Build 0)  -->
<!DOCTYPE svg PUBLIC "-//W3C//DTD SVG 1.1//EN" "http://www.w3.org/Graphics/SVG/1.1/DTD/svg11.dtd">
<svg version="1.1" id="Layer_1" xmlns="http://www.w3.org/2000/svg" xmlns:xlink="http://www.w3.org/1999/xlink" x="0px" y="0px"
	 width="153.395px" height="78.02px" viewBox="0 0 153.395 78.02" enable-background="new 0 0 153.395 78.02" xml:space="preserve">
<g>
	<path fill="#E3017E" d="M97.172,38.457c0.938,0,1.754,0.584,2.135,1.319l1.659-0.815c-0.639-1.129-1.794-2.216-3.793-2.216
		c-2.719,0-4.826,1.903-4.826,4.69s2.107,4.69,4.826,4.69c1.999,0,3.141-1.101,3.793-2.229l-1.659-0.802
		c-0.381,0.748-1.196,1.319-2.135,1.319c-1.645,0-2.841-1.265-2.841-2.978S95.527,38.457,97.172,38.457z"/>
	<path fill="#E3017E" d="M107.229,36.744c-2.732,0-4.731,1.958-4.731,4.69s1.999,4.69,4.731,4.69c2.747,0,4.745-1.958,4.745-4.69
		S109.975,36.744,107.229,36.744z M107.229,44.412c-1.672,0-2.746-1.292-2.746-2.978c0-1.7,1.074-2.978,2.746-2.978
		c1.672,0,2.76,1.278,2.76,2.978C109.988,43.121,108.901,44.412,107.229,44.412z"/>
	<polygon fill="#E3017E" points="113.261,38.593 115.912,38.593 115.912,45.962 117.856,45.962 117.856,38.593 120.494,38.593 
		120.494,36.894 113.261,36.894 	"/>
	<rect x="122.543" y="36.894" fill="#E3017E" width="1.931" height="9.068"/>
	<polygon fill="#E3017E" points="133.566,38.443 133.566,36.894 126.755,36.894 126.755,38.593 131.038,38.593 126.755,44.398 
		126.755,45.962 133.662,45.962 133.662,44.262 129.284,44.262 	"/>
	<path fill="#E3017E" d="M138.484,36.894l-3.508,9.068h2.203l0.571-1.536h3.889l0.558,1.536h2.202l-3.494-9.068H138.484z
		 M138.28,42.726l1.414-3.902l1.414,3.902H138.28z"/>
	<path fill="#E3017E" d="M151.355,42.509c0.979-0.231,1.985-1.088,1.985-2.692c0-1.686-1.155-2.923-3.045-2.923h-4.242v9.068h1.931
		V42.74h1.414l1.781,3.222h2.216L151.355,42.509z M150.009,41.041h-2.025v-2.447h2.025c0.775,0,1.36,0.462,1.36,1.224
		C151.369,40.578,150.784,41.041,150.009,41.041z"/>
	<path fill="#E3017E" d="M39.011,0C17.5,0,0,17.5,0,39.011C0,60.521,17.5,78.02,39.011,78.02c21.51,0,39.01-17.499,39.01-39.009
		C78.021,17.5,60.521,0,39.011,0z M39.011,77.02C18.052,77.02,1,59.969,1,39.011C1,18.052,18.052,1,39.011,1
		c20.958,0,38.01,17.052,38.01,38.011C77.021,59.969,59.969,77.02,39.011,77.02z"/>
	<path fill="#E3017E" d="M57.312,18.941H40.318c-0.021,0-0.039,0.009-0.059,0.012c-0.025,0.003-0.048,0.008-0.073,0.015
		c-0.08,0.022-0.154,0.058-0.212,0.114c-0.003,0.002-0.007,0.002-0.009,0.005l-8.581,8.581c-0.061,0.061-0.098,0.141-0.121,0.226
		c-0.006,0.022-0.01,0.042-0.013,0.064c-0.003,0.022-0.013,0.042-0.013,0.064v6.072h-8.85h-3.679c-0.276,0-0.5,0.224-0.5,0.5v23.99
		c0,0.276,0.224,0.5,0.5,0.5h3.679h20.12c0.276,0,0.5-0.224,0.5-0.5v-8.149h14.305c0.276,0,0.5-0.224,0.5-0.5V19.441
		C57.812,19.165,57.588,18.941,57.312,18.941z M21.887,58.083h-2.679v-22.99h2.679V58.083z M39.818,20.646v6.874h-6.875
		L39.818,20.646z M42.007,58.083h-19.12v-22.99h19.12V58.083z M56.812,49.434H43.007V34.592c0-0.276-0.224-0.5-0.5-0.5H32.236
		v-5.572h8.082c0.276,0,0.5-0.224,0.5-0.5v-1.999H52.5c0.276,0,0.5-0.224,0.5-0.5s-0.224-0.5-0.5-0.5H40.818v-5.081h15.994V49.434z"
		/>
	<path fill="#E3017E" d="M25.902,42.889h13.25c0.276,0,0.5-0.224,0.5-0.5v-4.474c0-0.276-0.224-0.5-0.5-0.5h-13.25
		c-0.276,0-0.5,0.224-0.5,0.5v4.474C25.402,42.666,25.625,42.889,25.902,42.889z M26.402,38.416h11.604
		c-0.012,0.042-0.026,0.084-0.026,0.131v3.045c0,0.114,0.044,0.214,0.109,0.298H26.402V38.416z"/>
	<path fill="#E3017E" d="M28.768,45.816h-3.047c-0.138,0-0.25,0.112-0.25,0.25v1.809c0,0.138,0.112,0.25,0.25,0.25h3.047
		c0.138,0,0.25-0.112,0.25-0.25v-1.809C29.018,45.928,28.906,45.816,28.768,45.816z"/>
	<path fill="#E3017E" d="M33.594,45.816h-3.046c-0.138,0-0.25,0.112-0.25,0.25v1.809c0,0.138,0.112,0.25,0.25,0.25h3.046
		c0.138,0,0.25-0.112,0.25-0.25v-1.809C33.844,45.928,33.732,45.816,33.594,45.816z"/>
	<path fill="#E3017E" d="M38.479,45.816h-3.046c-0.138,0-0.25,0.112-0.25,0.25v1.809c0,0.138,0.112,0.25,0.25,0.25h3.046
		c0.138,0,0.25-0.112,0.25-0.25v-1.809C38.729,45.928,38.617,45.816,38.479,45.816z"/>
	<path fill="#E3017E" d="M28.768,49.132h-3.047c-0.138,0-0.25,0.112-0.25,0.25v1.808c0,0.138,0.112,0.25,0.25,0.25h3.047
		c0.138,0,0.25-0.112,0.25-0.25v-1.808C29.018,49.244,28.906,49.132,28.768,49.132z"/>
	<path fill="#E3017E" d="M33.594,49.132h-3.046c-0.138,0-0.25,0.112-0.25,0.25v1.808c0,0.138,0.112,0.25,0.25,0.25h3.046
		c0.138,0,0.25-0.112,0.25-0.25v-1.808C33.844,49.244,33.732,49.132,33.594,49.132z"/>
	<path fill="#E3017E" d="M38.479,49.132h-3.046c-0.138,0-0.25,0.112-0.25,0.25v1.808c0,0.138,0.112,0.25,0.25,0.25h3.046
		c0.138,0,0.25-0.112,0.25-0.25v-1.808C38.729,49.244,38.617,49.132,38.479,49.132z"/>
	<path fill="#E3017E" d="M28.768,52.446h-3.047c-0.138,0-0.25,0.112-0.25,0.25v1.81c0,0.138,0.112,0.25,0.25,0.25h3.047
		c0.138,0,0.25-0.112,0.25-0.25v-1.81C29.018,52.558,28.906,52.446,28.768,52.446z"/>
	<path fill="#E3017E" d="M33.594,52.446h-3.046c-0.138,0-0.25,0.112-0.25,0.25v1.81c0,0.138,0.112,0.25,0.25,0.25h3.046
		c0.138,0,0.25-0.112,0.25-0.25v-1.81C33.844,52.558,33.732,52.446,33.594,52.446z"/>
	<path fill="#E3017E" d="M38.479,52.446h-3.046c-0.138,0-0.25,0.112-0.25,0.25v1.81c0,0.138,0.112,0.25,0.25,0.25h3.046
		c0.138,0,0.25-0.112,0.25-0.25v-1.81C38.729,52.558,38.617,52.446,38.479,52.446z"/>
	<path fill="#E3017E" d="M52.5,30.808H36.956c-0.276,0-0.5,0.224-0.5,0.5s0.224,0.5,0.5,0.5H52.5c0.276,0,0.5-0.224,0.5-0.5
		S52.776,30.808,52.5,30.808z"/>
</g>
</svg>
