<?xml version="1.0" encoding="utf-8"?>
<!-- Generator: Adobe Illustrator 16.0.0, SVG Export Plug-In . SVG Version: 6.00 Build 0)  -->
<!DOCTYPE svg PUBLIC "-//W3C//DTD SVG 1.1//EN" "http://www.w3.org/Graphics/SVG/1.1/DTD/svg11.dtd">
<svg version="1.1" id="Layer_1" xmlns="http://www.w3.org/2000/svg" xmlns:xlink="http://www.w3.org/1999/xlink" x="0px" y="0px"
	 width="51px" height="51px" viewBox="0 0 51 51" enable-background="new 0 0 51 51" xml:space="preserve">
<g>
	<path fill="#E3017E" d="M25.5,0C11.439,0,0,11.439,0,25.5S11.439,51,25.5,51S51,39.561,51,25.5S39.56,0,25.5,0z M25.5,50
		C11.99,50,1,39.009,1,25.5S11.99,1,25.5,1S50,11.991,50,25.5S39.009,50,25.5,50z"/>
	<path fill="#E3017E" d="M34.142,18.241H31.57l-1.862-5.853c-0.066-0.208-0.259-0.349-0.477-0.349H16.857
		c-0.16,0-0.31,0.076-0.404,0.205c-0.094,0.128-0.121,0.294-0.073,0.446l1.766,5.55h-1.289c-2.848,0-5.166,2.317-5.166,5.166v10.886
		c0,0.276,0.224,0.5,0.5,0.5h9.332h5.594c0.678,1.196,1.25,2.983,1.25,5.641c0,0.276,0.224,0.5,0.5,0.5h8.455
		c0.276,0,0.5-0.224,0.5-0.5c0-2.504-0.502-4.322-1.152-5.641h2.137c0.276,0,0.5-0.224,0.5-0.5V23.407
		C39.306,20.559,36.99,18.241,34.142,18.241z M17.541,13.04h11.326l1.655,5.201H19.195L17.541,13.04z M12.691,23.407
		c0-2.297,1.869-4.166,4.166-4.166c2.297,0,4.166,1.869,4.166,4.166v10.386h-8.332V23.407z M34.437,32.053
		c-0.388-0.276-0.662-0.396-0.703-0.413c-0.061-0.025-0.125-0.038-0.191-0.038h-7.953v-1.084h8.848V32.053z M25.589,33.793v-0.811
		c0.248,0.188,0.54,0.451,0.842,0.811H25.589z M38.306,33.793h-2.213c-0.217-0.321-0.438-0.605-0.656-0.844v-2.932
		c0-0.276-0.224-0.5-0.5-0.5h-9.848c-0.276,0-0.5,0.224-0.5,0.5v3.775h-2.566V23.407c0-1.715-0.849-3.226-2.139-4.166h11.32h2.938
		c2.296,0,4.164,1.869,4.164,4.166V33.793z"/>
	<path fill="#E3017E" d="M26.5,23.076h-2c-0.276,0-0.5,0.224-0.5,0.5s0.224,0.5,0.5,0.5h2c0.276,0,0.5-0.224,0.5-0.5
		S26.776,23.076,26.5,23.076z"/>
</g>
</svg>
