<?xml version="1.0" encoding="utf-8"?>
<!-- Generator: Adobe Illustrator 16.0.0, SVG Export Plug-In . SVG Version: 6.00 Build 0)  -->
<!DOCTYPE svg PUBLIC "-//W3C//DTD SVG 1.1//EN" "http://www.w3.org/Graphics/SVG/1.1/DTD/svg11.dtd">
<svg version="1.1" id="Layer_1" xmlns="http://www.w3.org/2000/svg" xmlns:xlink="http://www.w3.org/1999/xlink" x="0px" y="0px"
	 width="51px" height="51px" viewBox="0 0 51 51" enable-background="new 0 0 51 51" xml:space="preserve">
<g>
	<path fill="#E3017E" d="M25.5,0C11.439,0,0,11.439,0,25.5S11.439,51,25.5,51S51,39.561,51,25.5S39.561,0,25.5,0z M25.5,50
		C11.991,50,1,39.009,1,25.5S11.991,1,25.5,1S50,11.991,50,25.5S39.009,50,25.5,50z"/>
	<path fill="#E3017E" d="M34.227,23.664c1.504-0.754,2.548-2.295,2.548-4.089c0-2.53-2.058-4.588-4.588-4.588H17.041
		c-2.53,0-4.589,2.058-4.589,4.588c0,1.794,1.045,3.334,2.549,4.089c-1.504,0.754-2.549,2.294-2.549,4.088
		c0,2.53,2.059,4.588,4.589,4.588h8.27c0.137,0.95,0.216,2.004,0.216,3.172v0.5h13.021v-0.5c0-3.807-0.818-6.486-1.832-8.359
		C36.512,25.62,35.559,24.332,34.227,23.664z M32.188,15.987c1.979,0,3.588,1.61,3.588,3.588c0,1.979-1.609,3.589-3.588,3.589
		H19.865c1.065-0.841,1.764-2.129,1.764-3.589s-0.698-2.748-1.764-3.588H32.188z M13.452,19.575c0-1.979,1.61-3.588,3.589-3.588
		c1.979,0,3.588,1.61,3.588,3.588c0,1.979-1.609,3.589-3.588,3.589C15.062,23.164,13.452,21.554,13.452,19.575z M13.452,27.752
		c0-1.979,1.61-3.588,3.589-3.588c1.979,0,3.588,1.61,3.588,3.588s-1.609,3.588-3.588,3.588
		C15.062,31.341,13.452,29.731,13.452,27.752z M19.865,31.341c1.066-0.841,1.764-2.128,1.764-3.588s-0.698-2.748-1.764-3.588h0.684
		c0.504,0.235,3.494,1.852,4.579,7.177H19.865z"/>
	<path fill="#E3017E" d="M17.041,25.889c-1.027,0-1.863,0.836-1.863,1.863s0.836,1.863,1.863,1.863c1.027,0,1.862-0.835,1.862-1.863
		S18.068,25.889,17.041,25.889z M17.041,28.615c-0.476,0-0.863-0.387-0.863-0.863c0-0.476,0.387-0.863,0.863-0.863
		c0.476,0,0.862,0.387,0.862,0.863C17.903,28.228,17.517,28.615,17.041,28.615z"/>
	<path fill="#E3017E" d="M17.041,17.712c-1.027,0-1.863,0.835-1.863,1.863s0.836,1.863,1.863,1.863c1.027,0,1.862-0.835,1.862-1.863
		S18.068,17.712,17.041,17.712z M17.041,20.438c-0.476,0-0.863-0.387-0.863-0.863s0.387-0.863,0.863-0.863
		c0.476,0,0.862,0.387,0.862,0.863S17.517,20.438,17.041,20.438z"/>
</g>
</svg>
