<?xml version="1.0" encoding="utf-8"?>
<!-- Generator: Adobe Illustrator 16.0.0, SVG Export Plug-In . SVG Version: 6.00 Build 0)  -->
<!DOCTYPE svg PUBLIC "-//W3C//DTD SVG 1.1//EN" "http://www.w3.org/Graphics/SVG/1.1/DTD/svg11.dtd">
<svg version="1.1" id="Layer_1" xmlns="http://www.w3.org/2000/svg" xmlns:xlink="http://www.w3.org/1999/xlink" x="0px" y="0px"
	 width="51px" height="51px" viewBox="0 0 51 51" enable-background="new 0 0 51 51" xml:space="preserve">
<g>
	<path fill="#E3017E" d="M25.5,0C11.439,0,0,11.439,0,25.5S11.439,51,25.5,51S51,39.561,51,25.5S39.561,0,25.5,0z M25.5,50
		C11.991,50,1,39.009,1,25.5S11.991,1,25.5,1S50,11.991,50,25.5S39.009,50,25.5,50z"/>
	<path fill="#E3017E" d="M38.537,24.341v-4.666c0-2.848-2.316-5.165-5.164-5.165H16.088c-2.849,0-5.166,2.317-5.166,5.165v4.666
		c0,0.276,0.224,0.5,0.5,0.5h4.705v10.648h-1.812c-0.276,0-0.5,0.224-0.5,0.5s0.224,0.5,0.5,0.5h2.312h2.75h2.312
		c0.276,0,0.5-0.224,0.5-0.5s-0.224-0.5-0.5-0.5h-1.812V24.841h0.875h5.507c1.025,1.648,1.961,4.247,1.961,8.278
		c0,0.276,0.224,0.5,0.5,0.5h2.406v1.87h-1.812c-0.276,0-0.5,0.224-0.5,0.5s0.224,0.5,0.5,0.5h2.312h2.75h2.312
		c0.276,0,0.5-0.224,0.5-0.5s-0.224-0.5-0.5-0.5h-1.812v-1.87h4.762c0.276,0,0.5-0.224,0.5-0.5c0-3.888-0.85-6.545-1.86-8.349
		C38.431,24.685,38.537,24.528,38.537,24.341z M33.373,15.51c2.296,0,4.164,1.869,4.164,4.165v3.937
		c-1.045-1.403-2.081-2.029-2.443-2.217v-2.214c0-0.276-0.224-0.5-0.5-0.5H23.73c-0.276,0-0.5,0.224-0.5,0.5v4.66h-1.979v-4.166
		c0-1.714-0.848-3.225-2.137-4.165H33.373z M34.094,21.286H24.23v-1.605h9.863V21.286z M11.922,19.675
		c0-2.296,1.869-4.165,4.166-4.165c2.296,0,4.164,1.869,4.164,4.165v4.166h-0.875h-2.75h-4.705V19.675z M18.877,35.489h-1.75V24.841
		h1.75V35.489z M24.23,23.841v-1.243c0.35,0.247,0.818,0.639,1.318,1.243H24.23z M33.877,35.489h-1.75v-1.87h1.75V35.489z"/>
</g>
</svg>
